<svg xmlns="http://www.w3.org/2000/svg" viewBox="0 0 120 120" fill="none">
  <!-- Neural network — indigo -->
  <line x1="20"  y1="60" x2="45"  y2="25" stroke="#4F46E5" stroke-width="1.5"/>
  <line x1="20"  y1="60" x2="45"  y2="95" stroke="#4F46E5" stroke-width="1.5"/>
  <line x1="45"  y1="25" x2="75"  y2="40" stroke="#4F46E5" stroke-width="1.5"/>
  <line x1="45"  y1="95" x2="75"  y2="80" stroke="#4F46E5" stroke-width="1.5"/>
  <line x1="75"  y1="40" x2="100" y2="60" stroke="#4F46E5" stroke-width="1.5"/>
  <line x1="75"  y1="80" x2="100" y2="60" stroke="#4F46E5" stroke-width="1.5"/>
  <line x1="45"  y1="25" x2="45"  y2="95" stroke="#4F46E5" stroke-width="1" opacity="0.5"/>
  <line x1="75"  y1="40" x2="75"  y2="80" stroke="#4F46E5" stroke-width="1" opacity="0.5"/>
  <line x1="45"  y1="25" x2="75"  y2="80" stroke="#4F46E5" stroke-width="1" opacity="0.35"/>
  <line x1="45"  y1="95" x2="75"  y2="40" stroke="#4F46E5" stroke-width="1" opacity="0.35"/>
  <circle cx="20"  cy="60" r="6"   fill="#4F46E5"/>
  <circle cx="45"  cy="25" r="5"   fill="#4F46E5"/>
  <circle cx="45"  cy="95" r="5"   fill="#4F46E5"/>
  <circle cx="75"  cy="40" r="6.5" fill="#4F46E5"/>
  <circle cx="75"  cy="80" r="6"   fill="#4F46E5"/>
  <circle cx="100" cy="60" r="6"   fill="#4F46E5"/>
  <circle cx="75" cy="40" r="13" stroke="#4F46E5" stroke-width="1.5" fill="none" opacity="0.4"/>
  <circle cx="75" cy="80" r="11" stroke="#4F46E5" stroke-width="1"   fill="none" opacity="0.3"/>
</svg>
